<?xml version="1.0" encoding="UTF-8"?>
<svg width="50px" height="50px" viewBox="0 0 50 50" version="1.1" xmlns="http://www.w3.org/2000/svg" xmlns:xlink="http://www.w3.org/1999/xlink">
    <!-- Generator: Sketch 51.1 (57501) - http://www.bohemiancoding.com/sketch -->
    <title>Combined Shape</title>
    <desc>Created with Sketch.</desc>
    <defs></defs>
    <g id="Pro-Landing-Page---on-TH" stroke="none" stroke-width="1" fill="none" fill-rule="evenodd">
        <path d="M16.1785714,14.1614907 L16.1785714,11.3664596 C16.1785714,9.8228066 14.9313647,8.57142857 13.3928571,8.57142857 C11.8543496,8.57142857 10.6071429,9.8228066 10.6071429,11.3664596 L10.6071429,14.1614907 L9.21428571,14.1614907 C7.6757782,14.1614907 6.42857143,15.4128687 6.42857143,16.9565217 C6.42857143,18.5001748 7.6757782,19.7515528 9.21428571,19.7515528 L17.5714286,19.7515528 C19.1099361,19.7515528 20.3571429,18.5001748 20.3571429,16.9565217 C20.3571429,15.4128687 19.1099361,14.1614907 17.5714286,14.1614907 L16.1785714,14.1614907 Z M27.7857143,35.1242236 L29.1785714,35.1242236 C30.7170789,35.1242236 31.9642857,33.8728456 31.9642857,32.3291925 C31.9642857,30.7855395 30.7170789,29.5341615 29.1785714,29.5341615 L20.8214286,29.5341615 C19.2829211,29.5341615 18.0357143,30.7855395 18.0357143,32.3291925 C18.0357143,33.8728456 19.2829211,35.1242236 20.8214286,35.1242236 L22.2142857,35.1242236 L22.2142857,37.6863354 C22.2142857,39.2299884 23.4614925,40.4813665 25,40.4813665 C26.5385075,40.4813665 27.7857143,39.2299884 27.7857143,37.6863354 L27.7857143,35.1242236 Z M39.547619,21.6149068 L39.547619,11.5983159 C39.547619,10.0546629 38.3004123,8.80328484 36.7619048,8.80328484 C35.2233972,8.80328484 33.9761905,10.0546629 33.9761905,11.5983159 L33.9761905,21.6149068 L32.4285714,21.6149068 C30.8900639,21.6149068 29.6428571,22.8662849 29.6428571,24.4099379 C29.6428571,25.9535909 30.8900639,27.2049689 32.4285714,27.2049689 L40.7857143,27.2049689 C42.3242218,27.2049689 43.5714286,25.9535909 43.5714286,24.4099379 C43.5714286,22.8662849 42.3242218,21.6149068 40.7857143,21.6149068 L39.547619,21.6149068 Z M5,0 L45,0 C47.7614237,4.39800865e-15 50,2.23857625 50,5 L50,45 C50,47.7614237 47.7614237,50 45,50 L5,50 C2.23857625,50 3.38176876e-16,47.7614237 0,45 L0,5 C-3.38176876e-16,2.23857625 2.23857625,5.07265313e-16 5,0 Z M33.8214286,32.3291925 L33.8214286,37.9192547 C33.8214286,39.4629077 35.0686353,40.7142857 36.6071429,40.7142857 C38.1456504,40.7142857 39.3928571,39.4629077 39.3928571,37.9192547 L39.3928571,32.3291925 C39.3928571,30.7855395 38.1456504,29.5341615 36.6071429,29.5341615 C35.0686353,29.5341615 33.8214286,30.7855395 33.8214286,32.3291925 Z M22.5993941,11.3664596 L22.5993941,24.4099379 C22.5993941,25.9535909 23.8466009,27.2049689 25.3851084,27.2049689 C26.923616,27.2049689 28.1708227,25.9535909 28.1708227,24.4099379 L28.1708227,11.3664596 C28.1708227,9.8228066 26.923616,8.57142857 25.3851084,8.57142857 C23.8466009,8.57142857 22.5993941,9.8228066 22.5993941,11.3664596 Z M10.9922513,24.8757764 L10.9922513,37.9192547 C10.9922513,39.4629077 12.2394581,40.7142857 13.7779656,40.7142857 C15.3164731,40.7142857 16.5636799,39.4629077 16.5636799,37.9192547 L16.5636799,24.8757764 C16.5636799,23.3321234 15.3164731,22.0807453 13.7779656,22.0807453 C12.2394581,22.0807453 10.9922513,23.3321234 10.9922513,24.8757764 Z" id="Combined-Shape" fill="#FFFFFF"></path>
    </g>
</svg>